<svg xmlns="http://www.w3.org/2000/svg" xmlns:xlink="http://www.w3.org/1999/xlink" width="0" height="0" style="display:none;"><symbol viewBox="0 0 60 60" id="iconfont-i_about">
	<path d="M 28 0.999 C 27.175 1.531, 22.225 3.842, 17 6.133 C 11.775 8.424, 7.169 10.794, 6.765 11.399 C 6.361 12.005, 6.024 21.655, 6.015 32.844 C 6.001 52.340, 5.917 53.209, 4 53.710 C 2.701 54.050, 2 55.074, 2 56.633 L 2 59.032 29.250 58.766 C 56.154 58.503, 56.504 58.473, 56.802 56.380 C 57.009 54.934, 56.453 54.090, 55.052 53.724 C 53.098 53.213, 53 52.473, 53 38.285 C 53 27.917, 52.620 22.876, 51.750 21.717 C 50.524 20.085, 43.085 17, 40.374 17 C 39.581 17, 39 18.040, 39 19.460 C 39 21.463, 39.742 22.142, 43 23.118 L 47 24.317 47 39.158 L 47 54 41.607 54 C 37.612 54, 36.057 53.590, 35.607 52.418 C 35.273 51.548, 35 39.938, 35 26.618 C 35 1.817, 34.727 -0.021, 31.050 0.015 C 30.198 0.024, 28.825 0.466, 28 0.999 M 19.228 11.037 L 10.957 14.921 11.228 34.211 L 11.500 53.500 20.500 53.500 L 29.500 53.500 29.768 30.250 C 29.980 11.964, 29.766 7.016, 28.768 7.076 C 28.071 7.118, 23.778 8.900, 19.228 11.037 M 20.250 17.612 C 15.845 19.583, 15 20.384, 15 22.589 C 15 24.953, 15.276 25.149, 17.750 24.539 C 24.195 22.950, 28.876 18.313, 26.344 16.025 C 25.880 15.606, 23.138 16.320, 20.250 17.612 M 19.750 30.210 C 15.658 31.967, 15 32.648, 15 35.125 C 15 36.706, 15.169 38, 15.376 38 C 15.582 38, 18.312 36.867, 21.443 35.483 C 26.113 33.417, 27.078 32.579, 26.817 30.811 C 26.390 27.908, 25.324 27.817, 19.750 30.210" stroke="none" fill="black" fill-rule="evenodd"></path>
</symbol><symbol viewBox="0 0 60 60" id="iconfont-i_agreement">
	<path d="M 3 2 C 1.103 3.897, 1 5.333, 1 30 C 1 54.667, 1.103 56.103, 3 58 C 6.012 61.012, 14.877 60.824, 17.826 57.686 C 19.022 56.413, 20 55.063, 20 54.686 C 20 54.308, 17.075 54, 13.500 54 L 7 54 7 29.979 L 7 5.958 26.750 6.229 L 46.500 6.500 46.785 16.750 C 46.942 22.388, 47.434 27, 47.880 27 C 48.326 27, 49.435 26.177, 50.345 25.171 C 51.653 23.726, 52 21.243, 52 13.326 C 52 -0.764, 53.451 -0, 26.671 -0 C 6.333 -0, 4.877 0.123, 3 2 M 14.667 11.667 C 14.300 12.033, 14 13.383, 14 14.667 C 14 16.987, 14.071 17, 26.500 17 L 39 17 39 14 L 39 11 27.167 11 C 20.658 11, 15.033 11.300, 14.667 11.667 M 14.667 22.667 C 14.300 23.033, 14 24.383, 14 25.667 C 14 27.887, 14.336 28, 20.941 28 C 28.205 28, 29.544 27.290, 28.497 23.991 C 27.955 22.282, 26.978 22, 21.599 22 C 18.153 22, 15.033 22.300, 14.667 22.667 M 39.567 41.968 C 25.796 55.866, 23.775 59.121, 28.510 59.775 C 30.895 60.104, 58.567 32.726, 57.535 31.057 C 57.180 30.482, 56.084 29.580, 55.100 29.054 C 53.609 28.256, 51.027 30.403, 39.567 41.968" stroke="none" fill="black" fill-rule="evenodd"></path>
</symbol><symbol viewBox="0 0 60 60" id="iconfont-i_awaitPay">
	<path d="M 3.923 5.923 L 1 8.846 1 31.768 C 1 52.704, 1.158 54.833, 2.829 56.345 C 4.430 57.794, 7.834 58, 30.174 58 C 53.624 58, 55.824 57.852, 57.345 56.171 C 58.767 54.600, 59 51.576, 59 34.728 C 59 15.592, 58.946 15.075, 56.777 13.557 C 55.555 12.701, 53.080 12, 51.277 12 C 48.342 12, 48 11.703, 48 9.155 C 48 3.469, 46.294 3, 25.594 3 L 6.846 3 3.923 5.923 M 7.667 9.667 C 5.721 11.612, 8.517 12, 24.500 12 C 39.389 12, 42 11.776, 42 10.500 C 42 9.226, 39.463 9, 25.167 9 C 15.908 9, 8.033 9.300, 7.667 9.667 M 6.833 18.986 C 6.650 19.529, 6.634 27.179, 6.798 35.986 L 7.095 52 30.048 52 L 53 52 53 47.500 L 53 43 42.958 43 L 32.916 43 33.208 35.250 L 33.500 27.500 43.250 27.214 L 53 26.928 53 22.464 L 53 18 30.083 18 C 15.912 18, 7.039 18.376, 6.833 18.986 M 38.676 34.402 C 37.822 36.628, 38.896 37, 46.167 37 C 52.333 37, 53 36.805, 53 35 C 53 33.193, 52.333 33, 46.107 33 C 41.116 33, 39.066 33.387, 38.676 34.402" stroke="none" fill="black" fill-rule="evenodd"></path>
</symbol><symbol viewBox="0 0 60 60" id="iconfont-i_awaitShipments">
	<path d="M 7.257 2.231 C 6.696 2.929, 5.059 5.848, 3.619 8.717 C 1.057 13.821, 1 14.363, 1 33.812 C 1 58.657, -0.005 57.179, 16.615 56.783 C 28.026 56.511, 28.513 56.412, 28.815 54.283 C 29.123 52.120, 28.856 52.060, 17.815 51.783 L 6.500 51.500 6.226 34.731 L 5.951 17.962 28.726 18.231 L 51.500 18.500 51.800 24.250 C 52.079 29.604, 52.269 30, 54.550 30 C 56.954 30, 56.999 29.846, 56.972 21.750 C 56.947 14.394, 56.595 12.850, 53.722 7.500 L 50.500 1.500 29.389 1.231 C 13.264 1.025, 8.036 1.261, 7.257 2.231 M 9.526 8.950 C 8.687 10.573, 8 12.148, 8 12.450 C 8 12.753, 17.450 13, 29 13 C 40.550 13, 50 12.753, 50 12.450 C 50 12.148, 49.313 10.573, 48.474 8.950 L 46.949 6 29 6 L 11.051 6 9.526 8.950 M 11 26.500 C 11 28.929, 11.200 29, 18 29 C 24.800 29, 25 28.929, 25 26.500 C 25 24.071, 24.800 24, 18 24 C 11.200 24, 11 24.071, 11 26.500 M 44.656 35.827 C 43.106 37.540, 43.164 37.805, 45.591 40.077 L 48.178 42.500 40.339 43 C 32.777 43.482, 32.500 43.588, 32.500 46 C 32.500 48.426, 32.728 48.509, 40.250 48.792 C 44.513 48.953, 48 49.312, 48 49.590 C 48 49.868, 46.763 51.173, 45.250 52.489 L 42.500 54.882 44.528 56.941 L 46.557 59.001 52.998 52.502 L 59.440 46.002 53.501 40.001 C 50.235 36.701, 47.281 34, 46.936 34 C 46.592 34, 45.566 34.822, 44.656 35.827" stroke="none" fill="black" fill-rule="evenodd"></path>
</symbol><symbol viewBox="0 0 55 42" id="iconfont-i_awaitTake">
	<path d="M 14.667 1.667 C 14.300 2.033, 14 4.476, 14 7.095 L 14 11.856 8.262 14.003 C 5.106 15.184, 1.956 16.621, 1.262 17.197 C 0.445 17.875, 0 20.970, 0 25.967 C 0 32.179, 0.358 34.014, 1.829 35.345 C 4.502 37.764, 7.496 37.402, 8.818 34.500 C 9.866 32.199, 9.759 32, 7.479 32 C 5.501 32, 5 31.494, 5 29.500 C 5 27.090, 5.233 27, 11.500 27 L 18 27 18 16 L 18 5 31.500 5 L 45 5 45 8.500 L 45 12 40 12 C 35.333 12, 35 12.167, 35 14.500 C 35 16.944, 35.167 17, 42.500 17 L 50 17 50 10.200 C 50 6.244, 49.498 2.898, 48.800 2.200 C 47.506 0.906, 15.920 0.413, 14.667 1.667 M 9.060 18.395 C 3.834 20.283, 4.004 22, 9.417 22 C 13.639 22, 14 21.803, 14 19.500 C 14 16.695, 13.856 16.662, 9.060 18.395 M 41 21.500 C 41 23.333, 41.533 24, 43 24 C 44.667 24, 45 24.667, 45 28 C 45 30.200, 44.534 32, 43.965 32 C 43.291 32, 43.339 32.786, 44.100 34.250 C 45.788 37.493, 45.795 37.496, 47.994 35.506 C 49.476 34.164, 50 32.425, 50 28.845 C 50 24.667, 50.275 24, 52 24 C 53.467 24, 54 23.333, 54 21.500 C 54 19.090, 53.767 19, 47.500 19 C 41.233 19, 41 19.090, 41 21.500 M 20.182 34.500 C 21.184 36.698, 21.946 37, 26.500 37 C 31.054 37, 31.816 36.698, 32.818 34.500 L 33.957 32 26.500 32 L 19.043 32 20.182 34.500 M 11.410 35.375 C 10.211 38.498, 11.424 40.500, 14.514 40.500 C 17.165 40.500, 17.500 40.164, 17.500 37.500 C 17.500 34.969, 17.069 34.450, 14.744 34.183 C 12.986 33.981, 11.779 34.412, 11.410 35.375 M 35.410 35.375 C 34.211 38.498, 35.424 40.500, 38.514 40.500 C 41.165 40.500, 41.500 40.164, 41.500 37.500 C 41.500 34.969, 41.069 34.450, 38.744 34.183 C 36.986 33.981, 35.779 34.412, 35.410 35.375" stroke="none" fill="black" fill-rule="evenodd"></path>
</symbol><symbol viewBox="0 0 60 60" id="iconfont-i_feedback">
	<path d="M 2.021 6.979 C 0.121 8.879, 0 10.262, -0 30 C -0 49.667, 0.127 51.127, 2 53 C 3.884 54.884, 5.333 55, 27.066 55 C 41.053 55, 50.893 54.593, 52.066 53.965 C 53.805 53.034, 54 51.776, 54 41.465 L 54 30 51.536 30 C 49.106 30, 49.069 30.132, 48.786 39.750 L 48.500 49.500 27.500 49.500 L 6.500 49.500 6.500 30 L 6.500 10.500 25.817 10.228 L 45.133 9.956 44.817 7.728 C 44.503 5.518, 44.335 5.498, 24.271 5.229 C 5.112 4.973, 3.934 5.066, 2.021 6.979 M 41.237 21.263 C 27.168 35.357, 24.414 39.464, 29.469 38.816 C 31.069 38.611, 36.870 33.607, 45.970 24.580 C 59.282 11.376, 59.918 10.567, 58.346 8.830 C 57.435 7.824, 56.416 7, 56.082 7 C 55.748 7, 49.067 13.418, 41.237 21.263" stroke="none" fill="black" fill-rule="evenodd"></path>
</symbol></svg>