<svg xmlns="http://www.w3.org/2000/svg" width="60" height="60" viewBox="0 0 60 60" version="1.1">
	<path d="M 28 0.999 C 27.175 1.531, 22.225 3.842, 17 6.133 C 11.775 8.424, 7.169 10.794, 6.765 11.399 C 6.361 12.005, 6.024 21.655, 6.015 32.844 C 6.001 52.340, 5.917 53.209, 4 53.710 C 2.701 54.050, 2 55.074, 2 56.633 L 2 59.032 29.250 58.766 C 56.154 58.503, 56.504 58.473, 56.802 56.380 C 57.009 54.934, 56.453 54.090, 55.052 53.724 C 53.098 53.213, 53 52.473, 53 38.285 C 53 27.917, 52.620 22.876, 51.750 21.717 C 50.524 20.085, 43.085 17, 40.374 17 C 39.581 17, 39 18.040, 39 19.460 C 39 21.463, 39.742 22.142, 43 23.118 L 47 24.317 47 39.158 L 47 54 41.607 54 C 37.612 54, 36.057 53.590, 35.607 52.418 C 35.273 51.548, 35 39.938, 35 26.618 C 35 1.817, 34.727 -0.021, 31.050 0.015 C 30.198 0.024, 28.825 0.466, 28 0.999 M 19.228 11.037 L 10.957 14.921 11.228 34.211 L 11.500 53.500 20.500 53.500 L 29.500 53.500 29.768 30.250 C 29.980 11.964, 29.766 7.016, 28.768 7.076 C 28.071 7.118, 23.778 8.900, 19.228 11.037 M 20.250 17.612 C 15.845 19.583, 15 20.384, 15 22.589 C 15 24.953, 15.276 25.149, 17.750 24.539 C 24.195 22.950, 28.876 18.313, 26.344 16.025 C 25.880 15.606, 23.138 16.320, 20.250 17.612 M 19.750 30.210 C 15.658 31.967, 15 32.648, 15 35.125 C 15 36.706, 15.169 38, 15.376 38 C 15.582 38, 18.312 36.867, 21.443 35.483 C 26.113 33.417, 27.078 32.579, 26.817 30.811 C 26.390 27.908, 25.324 27.817, 19.750 30.210" stroke="none" fill="black" fill-rule="evenodd"/>
</svg>