<svg xmlns="http://www.w3.org/2000/svg" width="60" height="60" viewBox="0 0 60 60" version="1.1">
	<path d="M 3 2 C 1.103 3.897, 1 5.333, 1 30 C 1 54.667, 1.103 56.103, 3 58 C 6.012 61.012, 14.877 60.824, 17.826 57.686 C 19.022 56.413, 20 55.063, 20 54.686 C 20 54.308, 17.075 54, 13.500 54 L 7 54 7 29.979 L 7 5.958 26.750 6.229 L 46.500 6.500 46.785 16.750 C 46.942 22.388, 47.434 27, 47.880 27 C 48.326 27, 49.435 26.177, 50.345 25.171 C 51.653 23.726, 52 21.243, 52 13.326 C 52 -0.764, 53.451 -0, 26.671 -0 C 6.333 -0, 4.877 0.123, 3 2 M 14.667 11.667 C 14.300 12.033, 14 13.383, 14 14.667 C 14 16.987, 14.071 17, 26.500 17 L 39 17 39 14 L 39 11 27.167 11 C 20.658 11, 15.033 11.300, 14.667 11.667 M 14.667 22.667 C 14.300 23.033, 14 24.383, 14 25.667 C 14 27.887, 14.336 28, 20.941 28 C 28.205 28, 29.544 27.290, 28.497 23.991 C 27.955 22.282, 26.978 22, 21.599 22 C 18.153 22, 15.033 22.300, 14.667 22.667 M 39.567 41.968 C 25.796 55.866, 23.775 59.121, 28.510 59.775 C 30.895 60.104, 58.567 32.726, 57.535 31.057 C 57.180 30.482, 56.084 29.580, 55.100 29.054 C 53.609 28.256, 51.027 30.403, 39.567 41.968" stroke="none" fill="black" fill-rule="evenodd"/>
</svg>