<svg xmlns="http://www.w3.org/2000/svg" width="60" height="60" viewBox="0 0 60 60" version="1.1">
	<path d="M 3.923 5.923 L 1 8.846 1 31.768 C 1 52.704, 1.158 54.833, 2.829 56.345 C 4.430 57.794, 7.834 58, 30.174 58 C 53.624 58, 55.824 57.852, 57.345 56.171 C 58.767 54.600, 59 51.576, 59 34.728 C 59 15.592, 58.946 15.075, 56.777 13.557 C 55.555 12.701, 53.080 12, 51.277 12 C 48.342 12, 48 11.703, 48 9.155 C 48 3.469, 46.294 3, 25.594 3 L 6.846 3 3.923 5.923 M 7.667 9.667 C 5.721 11.612, 8.517 12, 24.500 12 C 39.389 12, 42 11.776, 42 10.500 C 42 9.226, 39.463 9, 25.167 9 C 15.908 9, 8.033 9.300, 7.667 9.667 M 6.833 18.986 C 6.650 19.529, 6.634 27.179, 6.798 35.986 L 7.095 52 30.048 52 L 53 52 53 47.500 L 53 43 42.958 43 L 32.916 43 33.208 35.250 L 33.500 27.500 43.250 27.214 L 53 26.928 53 22.464 L 53 18 30.083 18 C 15.912 18, 7.039 18.376, 6.833 18.986 M 38.676 34.402 C 37.822 36.628, 38.896 37, 46.167 37 C 52.333 37, 53 36.805, 53 35 C 53 33.193, 52.333 33, 46.107 33 C 41.116 33, 39.066 33.387, 38.676 34.402" stroke="none" fill="black" fill-rule="evenodd"/>
</svg>