<svg xmlns="http://www.w3.org/2000/svg" width="60" height="60" viewBox="0 0 60 60" version="1.1">
	<path d="M 7.257 2.231 C 6.696 2.929, 5.059 5.848, 3.619 8.717 C 1.057 13.821, 1 14.363, 1 33.812 C 1 58.657, -0.005 57.179, 16.615 56.783 C 28.026 56.511, 28.513 56.412, 28.815 54.283 C 29.123 52.120, 28.856 52.060, 17.815 51.783 L 6.500 51.500 6.226 34.731 L 5.951 17.962 28.726 18.231 L 51.500 18.500 51.800 24.250 C 52.079 29.604, 52.269 30, 54.550 30 C 56.954 30, 56.999 29.846, 56.972 21.750 C 56.947 14.394, 56.595 12.850, 53.722 7.500 L 50.500 1.500 29.389 1.231 C 13.264 1.025, 8.036 1.261, 7.257 2.231 M 9.526 8.950 C 8.687 10.573, 8 12.148, 8 12.450 C 8 12.753, 17.450 13, 29 13 C 40.550 13, 50 12.753, 50 12.450 C 50 12.148, 49.313 10.573, 48.474 8.950 L 46.949 6 29 6 L 11.051 6 9.526 8.950 M 11 26.500 C 11 28.929, 11.200 29, 18 29 C 24.800 29, 25 28.929, 25 26.500 C 25 24.071, 24.800 24, 18 24 C 11.200 24, 11 24.071, 11 26.500 M 44.656 35.827 C 43.106 37.540, 43.164 37.805, 45.591 40.077 L 48.178 42.500 40.339 43 C 32.777 43.482, 32.500 43.588, 32.500 46 C 32.500 48.426, 32.728 48.509, 40.250 48.792 C 44.513 48.953, 48 49.312, 48 49.590 C 48 49.868, 46.763 51.173, 45.250 52.489 L 42.500 54.882 44.528 56.941 L 46.557 59.001 52.998 52.502 L 59.440 46.002 53.501 40.001 C 50.235 36.701, 47.281 34, 46.936 34 C 46.592 34, 45.566 34.822, 44.656 35.827" stroke="none" fill="black" fill-rule="evenodd"/>
</svg>