<svg xmlns="http://www.w3.org/2000/svg" width="55" height="42" viewBox="0 0 55 42" version="1.1">
	<path d="M 14.667 1.667 C 14.300 2.033, 14 4.476, 14 7.095 L 14 11.856 8.262 14.003 C 5.106 15.184, 1.956 16.621, 1.262 17.197 C 0.445 17.875, 0 20.970, 0 25.967 C 0 32.179, 0.358 34.014, 1.829 35.345 C 4.502 37.764, 7.496 37.402, 8.818 34.500 C 9.866 32.199, 9.759 32, 7.479 32 C 5.501 32, 5 31.494, 5 29.500 C 5 27.090, 5.233 27, 11.500 27 L 18 27 18 16 L 18 5 31.500 5 L 45 5 45 8.500 L 45 12 40 12 C 35.333 12, 35 12.167, 35 14.500 C 35 16.944, 35.167 17, 42.500 17 L 50 17 50 10.200 C 50 6.244, 49.498 2.898, 48.800 2.200 C 47.506 0.906, 15.920 0.413, 14.667 1.667 M 9.060 18.395 C 3.834 20.283, 4.004 22, 9.417 22 C 13.639 22, 14 21.803, 14 19.500 C 14 16.695, 13.856 16.662, 9.060 18.395 M 41 21.500 C 41 23.333, 41.533 24, 43 24 C 44.667 24, 45 24.667, 45 28 C 45 30.200, 44.534 32, 43.965 32 C 43.291 32, 43.339 32.786, 44.100 34.250 C 45.788 37.493, 45.795 37.496, 47.994 35.506 C 49.476 34.164, 50 32.425, 50 28.845 C 50 24.667, 50.275 24, 52 24 C 53.467 24, 54 23.333, 54 21.500 C 54 19.090, 53.767 19, 47.500 19 C 41.233 19, 41 19.090, 41 21.500 M 20.182 34.500 C 21.184 36.698, 21.946 37, 26.500 37 C 31.054 37, 31.816 36.698, 32.818 34.500 L 33.957 32 26.500 32 L 19.043 32 20.182 34.500 M 11.410 35.375 C 10.211 38.498, 11.424 40.500, 14.514 40.500 C 17.165 40.500, 17.500 40.164, 17.500 37.500 C 17.500 34.969, 17.069 34.450, 14.744 34.183 C 12.986 33.981, 11.779 34.412, 11.410 35.375 M 35.410 35.375 C 34.211 38.498, 35.424 40.500, 38.514 40.500 C 41.165 40.500, 41.500 40.164, 41.500 37.500 C 41.500 34.969, 41.069 34.450, 38.744 34.183 C 36.986 33.981, 35.779 34.412, 35.410 35.375" stroke="none" fill="black" fill-rule="evenodd"/>
</svg>