<svg xmlns="http://www.w3.org/2000/svg" width="60" height="60" viewBox="0 0 60 60" version="1.1">
	<path d="M 2.021 6.979 C 0.121 8.879, 0 10.262, -0 30 C -0 49.667, 0.127 51.127, 2 53 C 3.884 54.884, 5.333 55, 27.066 55 C 41.053 55, 50.893 54.593, 52.066 53.965 C 53.805 53.034, 54 51.776, 54 41.465 L 54 30 51.536 30 C 49.106 30, 49.069 30.132, 48.786 39.750 L 48.500 49.500 27.500 49.500 L 6.500 49.500 6.500 30 L 6.500 10.500 25.817 10.228 L 45.133 9.956 44.817 7.728 C 44.503 5.518, 44.335 5.498, 24.271 5.229 C 5.112 4.973, 3.934 5.066, 2.021 6.979 M 41.237 21.263 C 27.168 35.357, 24.414 39.464, 29.469 38.816 C 31.069 38.611, 36.870 33.607, 45.970 24.580 C 59.282 11.376, 59.918 10.567, 58.346 8.830 C 57.435 7.824, 56.416 7, 56.082 7 C 55.748 7, 49.067 13.418, 41.237 21.263" stroke="none" fill="black" fill-rule="evenodd"/>
</svg>